<mxfile host="www.draw.io" modified="2020-02-18T18:53:10.722Z" agent="Mozilla/5.0 (Macintosh; Intel Mac OS X 10_14_6) AppleWebKit/537.36 (KHTML, like Gecko) Chrome/80.0.3987.106 Safari/537.36" etag="jnejL1ACIxu36yPYR9Yf" version="12.7.1" type="github">
  <diagram id="q0DXG7_D4mCsrT8UMNSQ" name="Page-1">
    <mxGraphModel dx="1830" dy="1206" grid="1" gridSize="10" guides="1" tooltips="1" connect="1" arrows="1" fold="1" page="1" pageScale="1" pageWidth="827" pageHeight="1169" math="0" shadow="0">
      <root>
        <mxCell id="0" />
        <mxCell id="1" parent="0" />
        <mxCell id="L5prJ-QZaNP_GwUlff3l-1" value="Login" style="strokeWidth=1;shadow=0;dashed=0;align=center;html=1;shape=mxgraph.mockup.containers.window;align=left;verticalAlign=top;spacingLeft=8;strokeColor2=#008cff;strokeColor3=#c4c4c4;fontColor=#666666;mainText=;fontSize=17;labelBackgroundColor=none;" vertex="1" parent="1">
          <mxGeometry x="40" y="40" width="550" height="380" as="geometry" />
        </mxCell>
        <mxCell id="L5prJ-QZaNP_GwUlff3l-18" style="edgeStyle=orthogonalEdgeStyle;rounded=0;orthogonalLoop=1;jettySize=auto;html=1;entryX=0;entryY=0.303;entryDx=0;entryDy=0;entryPerimeter=0;strokeWidth=6;fillColor=#f5f5f5;strokeColor=#E6E6E6;dashed=1;" edge="1" parent="1" source="L5prJ-QZaNP_GwUlff3l-2" target="L5prJ-QZaNP_GwUlff3l-5">
          <mxGeometry relative="1" as="geometry" />
        </mxCell>
        <mxCell id="L5prJ-QZaNP_GwUlff3l-2" value="Course Director" style="strokeWidth=1;shadow=0;dashed=0;align=center;html=1;shape=mxgraph.mockup.buttons.button;strokeColor=#666666;fontColor=#ffffff;mainText=;buttonStyle=round;fontSize=17;fontStyle=1;fillColor=#008cff;whiteSpace=wrap;" vertex="1" parent="1">
          <mxGeometry x="240" y="130" width="150" height="50" as="geometry" />
        </mxCell>
        <mxCell id="L5prJ-QZaNP_GwUlff3l-19" style="edgeStyle=orthogonalEdgeStyle;rounded=0;orthogonalLoop=1;jettySize=auto;html=1;strokeWidth=6;fillColor=#f5f5f5;strokeColor=#E6E6E6;dashed=1;" edge="1" parent="1" source="L5prJ-QZaNP_GwUlff3l-3" target="L5prJ-QZaNP_GwUlff3l-11">
          <mxGeometry relative="1" as="geometry">
            <Array as="points">
              <mxPoint x="510" y="225" />
              <mxPoint x="510" y="630" />
            </Array>
          </mxGeometry>
        </mxCell>
        <mxCell id="L5prJ-QZaNP_GwUlff3l-3" value="Administrator" style="strokeWidth=1;shadow=0;dashed=0;align=center;html=1;shape=mxgraph.mockup.buttons.button;strokeColor=#666666;fontColor=#ffffff;mainText=;buttonStyle=round;fontSize=17;fontStyle=1;fillColor=#008cff;whiteSpace=wrap;" vertex="1" parent="1">
          <mxGeometry x="240" y="200" width="150" height="50" as="geometry" />
        </mxCell>
        <mxCell id="L5prJ-QZaNP_GwUlff3l-20" style="edgeStyle=orthogonalEdgeStyle;rounded=0;orthogonalLoop=1;jettySize=auto;html=1;entryX=0;entryY=0.608;entryDx=0;entryDy=0;entryPerimeter=0;strokeWidth=6;fillColor=#f5f5f5;strokeColor=#E6E6E6;dashed=1;" edge="1" parent="1" source="L5prJ-QZaNP_GwUlff3l-4" target="L5prJ-QZaNP_GwUlff3l-15">
          <mxGeometry relative="1" as="geometry">
            <Array as="points">
              <mxPoint x="450" y="295" />
              <mxPoint x="450" y="1091" />
            </Array>
          </mxGeometry>
        </mxCell>
        <mxCell id="L5prJ-QZaNP_GwUlff3l-4" value="PTT Director" style="strokeWidth=1;shadow=0;dashed=0;align=center;html=1;shape=mxgraph.mockup.buttons.button;strokeColor=#666666;fontColor=#ffffff;mainText=;buttonStyle=round;fontSize=17;fontStyle=1;fillColor=#008cff;whiteSpace=wrap;" vertex="1" parent="1">
          <mxGeometry x="240" y="270" width="150" height="50" as="geometry" />
        </mxCell>
        <mxCell id="L5prJ-QZaNP_GwUlff3l-5" value="Course Director" style="strokeWidth=1;shadow=0;dashed=0;align=center;html=1;shape=mxgraph.mockup.containers.window;align=left;verticalAlign=top;spacingLeft=8;strokeColor2=#008cff;strokeColor3=#c4c4c4;fontColor=#666666;mainText=;fontSize=17;labelBackgroundColor=none;" vertex="1" parent="1">
          <mxGeometry x="630" y="40" width="550" height="380" as="geometry" />
        </mxCell>
        <mxCell id="L5prJ-QZaNP_GwUlff3l-6" value="Course Requirements" style="strokeWidth=1;shadow=0;dashed=0;align=center;html=1;shape=mxgraph.mockup.buttons.button;strokeColor=#666666;fontColor=#ffffff;mainText=;buttonStyle=round;fontSize=17;fontStyle=1;fillColor=#008cff;whiteSpace=wrap;" vertex="1" parent="1">
          <mxGeometry x="798.5" y="130" width="213" height="50" as="geometry" />
        </mxCell>
        <mxCell id="L5prJ-QZaNP_GwUlff3l-9" value="Courses" style="strokeWidth=1;shadow=0;dashed=0;align=center;html=1;shape=mxgraph.mockup.buttons.button;strokeColor=#666666;fontColor=#ffffff;mainText=;buttonStyle=round;fontSize=17;fontStyle=1;fillColor=#008cff;whiteSpace=wrap;" vertex="1" parent="1">
          <mxGeometry x="798.5" y="200" width="213" height="50" as="geometry" />
        </mxCell>
        <mxCell id="L5prJ-QZaNP_GwUlff3l-10" value="Qualifications" style="strokeWidth=1;shadow=0;dashed=0;align=center;html=1;shape=mxgraph.mockup.buttons.button;strokeColor=#666666;fontColor=#ffffff;mainText=;buttonStyle=round;fontSize=17;fontStyle=1;fillColor=#008cff;whiteSpace=wrap;" vertex="1" parent="1">
          <mxGeometry x="798.5" y="270" width="213" height="50" as="geometry" />
        </mxCell>
        <mxCell id="L5prJ-QZaNP_GwUlff3l-11" value="Administrator" style="strokeWidth=1;shadow=0;dashed=0;align=center;html=1;shape=mxgraph.mockup.containers.window;align=left;verticalAlign=top;spacingLeft=8;strokeColor2=#008cff;strokeColor3=#c4c4c4;fontColor=#666666;mainText=;fontSize=17;labelBackgroundColor=none;" vertex="1" parent="1">
          <mxGeometry x="630" y="450" width="550" height="380" as="geometry" />
        </mxCell>
        <mxCell id="L5prJ-QZaNP_GwUlff3l-12" value="Course Requirements" style="strokeWidth=1;shadow=0;dashed=0;align=center;html=1;shape=mxgraph.mockup.buttons.button;strokeColor=#666666;fontColor=#ffffff;mainText=;buttonStyle=round;fontSize=17;fontStyle=1;fillColor=#008cff;whiteSpace=wrap;" vertex="1" parent="1">
          <mxGeometry x="798.5" y="540" width="213" height="50" as="geometry" />
        </mxCell>
        <mxCell id="L5prJ-QZaNP_GwUlff3l-14" value="Teachers" style="strokeWidth=1;shadow=0;dashed=0;align=center;html=1;shape=mxgraph.mockup.buttons.button;strokeColor=#666666;fontColor=#ffffff;mainText=;buttonStyle=round;fontSize=17;fontStyle=1;fillColor=#008cff;whiteSpace=wrap;" vertex="1" parent="1">
          <mxGeometry x="798.5" y="615" width="213" height="50" as="geometry" />
        </mxCell>
        <mxCell id="L5prJ-QZaNP_GwUlff3l-15" value="PTT Director" style="strokeWidth=1;shadow=0;dashed=0;align=center;html=1;shape=mxgraph.mockup.containers.window;align=left;verticalAlign=top;spacingLeft=8;strokeColor2=#008cff;strokeColor3=#c4c4c4;fontColor=#666666;mainText=;fontSize=17;labelBackgroundColor=none;" vertex="1" parent="1">
          <mxGeometry x="630" y="860" width="550" height="380" as="geometry" />
        </mxCell>
        <mxCell id="L5prJ-QZaNP_GwUlff3l-16" value="Course Requirements" style="strokeWidth=1;shadow=0;dashed=0;align=center;html=1;shape=mxgraph.mockup.buttons.button;strokeColor=#666666;fontColor=#ffffff;mainText=;buttonStyle=round;fontSize=17;fontStyle=1;fillColor=#008cff;whiteSpace=wrap;" vertex="1" parent="1">
          <mxGeometry x="798.5" y="950" width="213" height="50" as="geometry" />
        </mxCell>
        <mxCell id="L5prJ-QZaNP_GwUlff3l-21" value="Course Requirements" style="strokeWidth=1;shadow=0;dashed=0;align=center;html=1;shape=mxgraph.mockup.containers.window;align=left;verticalAlign=top;spacingLeft=8;strokeColor2=#008cff;strokeColor3=#c4c4c4;fontColor=#666666;mainText=;fontSize=17;labelBackgroundColor=none;" vertex="1" parent="1">
          <mxGeometry x="1240" y="40" width="550" height="380" as="geometry" />
        </mxCell>
        <mxCell id="L5prJ-QZaNP_GwUlff3l-25" value="Logout" style="strokeWidth=1;shadow=0;dashed=0;align=center;html=1;shape=mxgraph.mockup.buttons.button;strokeColor=#666666;fontColor=#ffffff;mainText=;buttonStyle=round;fontSize=17;fontStyle=1;fillColor=#008cff;whiteSpace=wrap;" vertex="1" parent="1">
          <mxGeometry x="1060" y="370" width="90" height="30" as="geometry" />
        </mxCell>
        <mxCell id="L5prJ-QZaNP_GwUlff3l-26" value="Logout" style="strokeWidth=1;shadow=0;dashed=0;align=center;html=1;shape=mxgraph.mockup.buttons.button;strokeColor=#666666;fontColor=#ffffff;mainText=;buttonStyle=round;fontSize=17;fontStyle=1;fillColor=#008cff;whiteSpace=wrap;" vertex="1" parent="1">
          <mxGeometry x="1060" y="780" width="90" height="30" as="geometry" />
        </mxCell>
        <mxCell id="L5prJ-QZaNP_GwUlff3l-27" value="Logout" style="strokeWidth=1;shadow=0;dashed=0;align=center;html=1;shape=mxgraph.mockup.buttons.button;strokeColor=#666666;fontColor=#ffffff;mainText=;buttonStyle=round;fontSize=17;fontStyle=1;fillColor=#008cff;whiteSpace=wrap;" vertex="1" parent="1">
          <mxGeometry x="1060" y="1190" width="90" height="30" as="geometry" />
        </mxCell>
        <mxCell id="L5prJ-QZaNP_GwUlff3l-28" value="Home" style="strokeWidth=1;shadow=0;dashed=0;align=center;html=1;shape=mxgraph.mockup.buttons.button;strokeColor=#666666;fontColor=#ffffff;mainText=;buttonStyle=round;fontSize=17;fontStyle=1;fillColor=#008cff;whiteSpace=wrap;" vertex="1" parent="1">
          <mxGeometry x="1680" y="370" width="90" height="30" as="geometry" />
        </mxCell>
        <mxCell id="L5prJ-QZaNP_GwUlff3l-29" value="Courses" style="strokeWidth=1;shadow=0;dashed=0;align=center;html=1;shape=mxgraph.mockup.containers.window;align=left;verticalAlign=top;spacingLeft=8;strokeColor2=#008cff;strokeColor3=#c4c4c4;fontColor=#666666;mainText=;fontSize=17;labelBackgroundColor=none;" vertex="1" parent="1">
          <mxGeometry x="1240" y="450" width="550" height="380" as="geometry" />
        </mxCell>
        <mxCell id="L5prJ-QZaNP_GwUlff3l-30" value="Home" style="strokeWidth=1;shadow=0;dashed=0;align=center;html=1;shape=mxgraph.mockup.buttons.button;strokeColor=#666666;fontColor=#ffffff;mainText=;buttonStyle=round;fontSize=17;fontStyle=1;fillColor=#008cff;whiteSpace=wrap;" vertex="1" parent="1">
          <mxGeometry x="1680" y="780" width="90" height="30" as="geometry" />
        </mxCell>
      </root>
    </mxGraphModel>
  </diagram>
</mxfile>
